<?xml version="1.0" encoding="utf-8"?>
<!-- Generator: Adobe Illustrator 19.1.0, SVG Export Plug-In . SVG Version: 6.00 Build 0)  -->
<svg version="1.1" id="Calque_1" xmlns="http://www.w3.org/2000/svg" xmlns:xlink="http://www.w3.org/1999/xlink" x="0px" y="0px"
	 viewBox="-241.8 371.5 89.5 75.2" style="enable-background:new -241.8 371.5 89.5 75.2;" xml:space="preserve">
<style type="text/css">
	.st0{fill:#FFFFFF;}
</style>
<g>
	<g>
		<path class="st0" d="M-159.7,391.8h-26v-13.1c0-3-2.4-5.4-5.4-5.4h-43.2c-3,0-5.4,2.4-5.4,5.4v44.6c0,1.1,0.7,2.1,1.7,2.6
			c0.3,0.1,0.7,0.2,1.1,0.2c0.7,0,1.4-0.3,2-0.8l10.3-10.3h16.3v13.1c0,3,2.4,5.4,5.4,5.4h33.6l10.3,10.3c0.5,0.5,1.2,0.8,2,0.8
			c0.4,0,0.7-0.1,1.1-0.2c1-0.4,1.7-1.4,1.7-2.6v-44.6C-154.4,394.2-156.8,391.8-159.7,391.8z M-208.3,397.1v14.8h-16.4
			c-0.7,0-1.4,0.3-2,0.8l-10,10v-44.1c0-1.3,1.1-2.4,2.4-2.4h43.2c1.3,0,2.4,1.1,2.4,2.4v13.1h-14.2
			C-205.9,391.8-208.3,394.2-208.3,397.1z M-188.7,394.8v14.8c0,1.3-1.1,2.4-2.4,2.4h-14.2v-14.8c0-1.3,1.1-2.4,2.4-2.4H-188.7z
			 M-157.4,441.2l-10-10c-0.5-0.5-1.2-0.8-2-0.8h-33.7c-1.3,0-2.4-1.1-2.4-2.4v-13.1h14.2c3,0,5.4-2.4,5.4-5.4v-14.8h26
			c1.3,0,2.4,1.1,2.4,2.4V441.2z"/>
	</g>
</g>
</svg>
